<?xml version="1.0" encoding="UTF-8"?>
<svg id="Layer_1" data-name="Layer 1" xmlns="http://www.w3.org/2000/svg" viewBox="0 0 193.58 193.58">
  <defs>
    <style>
      .cls-1 {
        fill: #f9e9e9;
      }

      .cls-1, .cls-2 {
        stroke: #f9e9e9;
        stroke-miterlimit: 10;
      }

      .cls-2 {
        fill: none;
        stroke-width: 2.83px;
      }
    </style>
  </defs>
  <path class="cls-1" d="M1.36,96.44h0l77-14,14.35,14.35s-14.35,14.35-14.35,14.35L1.36,97.15l-.5-.35.5-.36Z"/>
  <path class="cls-1" d="M96.44,192.22h0l-14-77,14.35-14.35s14.35,14.35,14.35,14.35l-14,77-.35.5-.36-.5Z"/>
  <path class="cls-1" d="M192.22,97.15h0l-77,14-14.35-14.35s14.35-14.35,14.35-14.35l77,14,.5.35-.5.36Z"/>
  <path class="cls-1" d="M97.15,1.36h0l14,77-14.35,14.35s-14.35-14.35-14.35-14.35L96.44,1.36l.35-.5.36.5Z"/>
  <polyline class="cls-2" points="67.23 111.91 56.6 137.68 80.98 127.05"/>
  <polyline class="cls-2" points="126.35 81.68 136.98 55.91 112.6 66.53"/>
  <polyline class="cls-2" points="67.23 81.68 56.6 55.91 80.98 66.53"/>
  <polyline class="cls-2" points="126.35 111.91 136.98 137.68 112.6 127.05"/>
</svg>