<?xml version="1.0" encoding="UTF-8"?>
<svg id="Layer_1" data-name="Layer 1" xmlns="http://www.w3.org/2000/svg" viewBox="0 0 255.67 221.42">
  <defs>
    <style>
      .cls-1, .cls-2 {
        fill: #fff;
      }

      .cls-1, .cls-3 {
        stroke: #fff;
        stroke-miterlimit: 10;
      }

      .cls-3 {
        fill: none;
        stroke-width: 2.83px;
      }

      .cls-4 {
        fill: #c21f24;
      }
    </style>
  </defs>
  <g>
    <polygon class="cls-4" points="64.21 220.92 .58 110.71 64.21 .5 191.46 .5 255.09 110.71 191.46 220.92 64.21 220.92"/>
    <path class="cls-2" d="M191.17,1l63.34,109.71-63.34,109.71h-126.68S1.15,110.71,1.15,110.71L64.49,1h126.68M191.75,0H63.92L0,110.71l63.92,110.71h127.83s63.92-110.71,63.92-110.71L191.75,0h0Z"/>
  </g>
  <path class="cls-1" d="M32.24,110.06h0l77-14,14.35,14.35s-14.35,14.35-14.35,14.35l-77-14-.5-.35.5-.36Z"/>
  <path class="cls-1" d="M127.31,205.84h0s-14-77-14-77l14.35-14.35s14.35,14.35,14.35,14.35l-14,77-.35.5-.36-.5Z"/>
  <path class="cls-1" d="M223.1,110.77h0l-77,14-14.35-14.35s14.35-14.35,14.35-14.35l77,14,.5.35-.5.36Z"/>
  <path class="cls-1" d="M128.02,14.99h0l14,77-14.35,14.35s-14.35-14.35-14.35-14.35l14-77,.35-.5.36.5Z"/>
  <polyline class="cls-3" points="98.11 125.53 87.48 151.3 111.86 140.68"/>
  <polyline class="cls-3" points="157.23 95.3 167.86 69.53 143.48 80.16"/>
  <polyline class="cls-3" points="98.11 95.3 87.48 69.53 111.86 80.16"/>
  <polyline class="cls-3" points="157.23 125.53 167.86 151.3 143.48 140.68"/>
</svg>