<?xml version="1.0" encoding="UTF-8"?>
<svg id="Layer_1" data-name="Layer 1" xmlns="http://www.w3.org/2000/svg" viewBox="0 0 220.05 209">
  <defs>
    <style>
      .cls-1 {
        fill: #ff8c00;
      }
    </style>
  </defs>
  <path class="cls-1" d="M110.05,109H5.72c-3.27,0-5.83-2.73-5.65-5.96C3.19,45.61,51.24,0,110.05,0s106.87,45.61,109.99,103.04c.18,3.23-2.39,5.96-5.65,5.96h-104.34Z"/>
  <path class="cls-1" d="M33.82,146.33c0-9.34-7.57-16.91-16.91-16.91S0,136.99,0,146.33s7.57,16.91,16.91,16.91,16.91-7.57,16.91-16.91Z"/>
  <path class="cls-1" d="M203.13,129.42c-9.34,0-16.91,7.57-16.91,16.91s7.57,16.91,16.91,16.91,16.91-7.57,16.91-16.91-7.57-16.91-16.91-16.91Z"/>
  <path class="cls-1" d="M80.38,146.33c0-9.34-7.57-16.91-16.91-16.91s-16.91,7.57-16.91,16.91,7.57,16.91,16.91,16.91,16.91-7.57,16.91-16.91Z"/>
  <path class="cls-1" d="M126.93,146.33c0-9.34-7.57-16.91-16.91-16.91s-16.91,7.57-16.91,16.91,7.57,16.91,16.91,16.91,16.91-7.57,16.91-16.91Z"/>
  <path class="cls-1" d="M173.48,146.33c0-9.34-7.57-16.91-16.91-16.91s-16.91,7.57-16.91,16.91,7.57,16.91,16.91,16.91,16.91-7.57,16.91-16.91Z"/>
  <circle class="cls-1" cx="40.19" cy="192.09" r="16.91"/>
  <path class="cls-1" d="M86.74,175.18c-9.34,0-16.91,7.57-16.91,16.91s7.57,16.91,16.91,16.91,16.91-7.57,16.91-16.91-7.57-16.91-16.91-16.91Z"/>
  <path class="cls-1" d="M133.3,175.18c-9.34,0-16.91,7.57-16.91,16.91s7.57,16.91,16.91,16.91,16.91-7.57,16.91-16.91-7.57-16.91-16.91-16.91Z"/>
  <path class="cls-1" d="M179.85,175.18c-9.34,0-16.91,7.57-16.91,16.91s7.57,16.91,16.91,16.91,16.91-7.57,16.91-16.91-7.57-16.91-16.91-16.91Z"/>
</svg>