<?xml version="1.0" encoding="UTF-8"?>
<svg id="Layer_1" data-name="Layer 1" xmlns="http://www.w3.org/2000/svg" viewBox="0 0 220.04 202">
  <defs>
    <style>
      .cls-1 {
        fill: #f58615;
      }

      .cls-2 {
        fill: #ff8c00;
        stroke: #ff8c00;
        stroke-miterlimit: 10;
      }
    </style>
  </defs>
  <path class="cls-2" d="M109.05,97.5H17.17c-2.88,0-5.13-2.43-4.98-5.3C14.95,41.09,57.26.5,109.05.5s94.11,40.59,96.86,91.7c.15,2.87-2.1,5.3-4.98,5.3h-91.88Z"/>
  <g>
    <path class="cls-1" d="M33.82,139.33c0-9.34-7.57-16.91-16.91-16.91S0,129.99,0,139.33s7.57,16.91,16.91,16.91,16.91-7.57,16.91-16.91Z"/>
    <path class="cls-1" d="M203.13,122.42c-9.34,0-16.91,7.57-16.91,16.91s7.57,16.91,16.91,16.91,16.91-7.57,16.91-16.91-7.57-16.91-16.91-16.91Z"/>
    <path class="cls-1" d="M80.38,139.33c0-9.34-7.57-16.91-16.91-16.91s-16.91,7.57-16.91,16.91,7.57,16.91,16.91,16.91,16.91-7.57,16.91-16.91Z"/>
    <path class="cls-1" d="M126.93,139.33c0-9.34-7.57-16.91-16.91-16.91s-16.91,7.57-16.91,16.91,7.57,16.91,16.91,16.91,16.91-7.57,16.91-16.91Z"/>
    <path class="cls-1" d="M173.48,139.33c0-9.34-7.57-16.91-16.91-16.91s-16.91,7.57-16.91,16.91,7.57,16.91,16.91,16.91,16.91-7.57,16.91-16.91Z"/>
    <circle class="cls-1" cx="40.19" cy="185.09" r="16.91"/>
    <path class="cls-1" d="M86.74,168.18c-9.34,0-16.91,7.57-16.91,16.91s7.57,16.91,16.91,16.91,16.91-7.57,16.91-16.91-7.57-16.91-16.91-16.91Z"/>
    <path class="cls-1" d="M133.3,168.18c-9.34,0-16.91,7.57-16.91,16.91s7.57,16.91,16.91,16.91,16.91-7.57,16.91-16.91-7.57-16.91-16.91-16.91Z"/>
    <path class="cls-1" d="M179.85,168.18c-9.34,0-16.91,7.57-16.91,16.91s7.57,16.91,16.91,16.91,16.91-7.57,16.91-16.91-7.57-16.91-16.91-16.91Z"/>
  </g>
</svg>