<?xml version="1.0" encoding="UTF-8"?>
<svg id="Layer_1" data-name="Layer 1" xmlns="http://www.w3.org/2000/svg" width="15in" height="15in" viewBox="0 0 1080 1080">
  <path d="M540.29,558.14H130.63c-12.83,0-22.89-10.71-22.2-23.39,12.27-225.48,200.93-404.58,431.86-404.58s419.59,179.1,431.86,404.58c.69,12.68-9.37,23.39-22.2,23.39h-409.66Z"/>
  <path d="M240.99,704.72c0-36.67-29.73-66.4-66.4-66.4s-66.4,29.73-66.4,66.4,29.73,66.4,66.4,66.4,66.4-29.73,66.4-66.4Z"/>
  <path d="M905.72,638.32c-36.67,0-66.4,29.73-66.4,66.4s29.73,66.4,66.4,66.4,66.4-29.73,66.4-66.4-29.73-66.4-66.4-66.4Z"/>
  <path d="M423.77,704.72c0-36.67-29.73-66.4-66.4-66.4s-66.4,29.73-66.4,66.4,29.73,66.4,66.4,66.4,66.4-29.73,66.4-66.4Z"/>
  <path d="M606.56,704.72c0-36.67-29.73-66.4-66.4-66.4s-66.4,29.73-66.4,66.4,29.73,66.4,66.4,66.4,66.4-29.73,66.4-66.4Z"/>
  <path d="M789.34,704.72c0-36.67-29.73-66.4-66.4-66.4s-66.4,29.73-66.4,66.4,29.73,66.4,66.4,66.4,66.4-29.73,66.4-66.4Z"/>
  <circle cx="265.98" cy="884.37" r="66.4"/>
  <path d="M448.76,817.97c-36.67,0-66.4,29.73-66.4,66.4s29.73,66.4,66.4,66.4,66.4-29.73,66.4-66.4-29.73-66.4-66.4-66.4Z"/>
  <path d="M631.55,817.97c-36.67,0-66.4,29.73-66.4,66.4s29.73,66.4,66.4,66.4,66.4-29.73,66.4-66.4-29.73-66.4-66.4-66.4Z"/>
  <path d="M814.33,817.97c-36.67,0-66.4,29.73-66.4,66.4s29.73,66.4,66.4,66.4,66.4-29.73,66.4-66.4-29.73-66.4-66.4-66.4Z"/>
</svg>