<?xml version="1.0" encoding="UTF-8"?>
<svg id="Layer_1" data-name="Layer 1" xmlns="http://www.w3.org/2000/svg" viewBox="0 0 203.05 192.85">
  <path d="M101.55,100.58H5.27c-3.01,0-5.38-2.52-5.22-5.5C2.94,42.09,47.28,0,101.55,0s98.61,42.09,101.49,95.08c.16,2.98-2.2,5.5-5.22,5.5h-96.28Z"/>
  <path d="M31.21,135.03c0-8.62-6.99-15.6-15.6-15.6s-15.61,6.99-15.61,15.6,6.99,15.6,15.61,15.6,15.6-6.99,15.6-15.6Z"/>
  <path d="M187.43,119.42c-8.62,0-15.6,6.99-15.6,15.6s6.99,15.6,15.6,15.6,15.61-6.99,15.61-15.6-6.99-15.6-15.61-15.6Z"/>
  <path d="M74.17,135.03c0-8.62-6.99-15.6-15.6-15.6s-15.61,6.99-15.61,15.6,6.99,15.6,15.61,15.6,15.6-6.99,15.6-15.6Z"/>
  <path d="M117.12,135.03c0-8.62-6.99-15.6-15.61-15.6s-15.6,6.99-15.6,15.6,6.99,15.6,15.6,15.6,15.61-6.99,15.61-15.6Z"/>
  <path d="M160.08,135.03c0-8.62-6.99-15.6-15.6-15.6s-15.61,6.99-15.61,15.6,6.99,15.6,15.61,15.6,15.6-6.99,15.6-15.6Z"/>
  <circle cx="37.08" cy="177.25" r="15.6"/>
  <path d="M80.04,161.64c-8.62,0-15.61,6.99-15.61,15.6s6.99,15.6,15.61,15.6,15.6-6.99,15.6-15.6-6.99-15.6-15.6-15.6Z"/>
  <path d="M123,161.64c-8.62,0-15.6,6.99-15.6,15.6s6.99,15.6,15.6,15.6,15.61-6.99,15.61-15.6-6.99-15.6-15.61-15.6Z"/>
  <path d="M165.96,161.64c-8.62,0-15.6,6.99-15.6,15.6s6.99,15.6,15.6,15.6,15.61-6.99,15.61-15.6-6.99-15.6-15.61-15.6Z"/>
</svg>