<?xml version="1.0" encoding="UTF-8"?>
<svg id="Layer_1" data-name="Layer 1" xmlns="http://www.w3.org/2000/svg" viewBox="0 0 864 820.6">
  <path d="M432.11,427.97H22.44c-12.83,0-22.89-10.71-22.2-23.39C12.52,179.1,201.18,0,432.11,0s419.59,179.1,431.86,404.58c.69,12.68-9.37,23.39-22.2,23.39h-409.66Z"/>
  <path d="M132.8,574.55c0-36.67-29.73-66.4-66.4-66.4S0,537.88,0,574.55s29.73,66.4,66.4,66.4,66.4-29.73,66.4-66.4Z"/>
  <path d="M797.54,508.15c-36.67,0-66.4,29.73-66.4,66.4s29.73,66.4,66.4,66.4,66.4-29.73,66.4-66.4-29.73-66.4-66.4-66.4Z"/>
  <path d="M315.58,574.55c0-36.67-29.73-66.4-66.4-66.4s-66.4,29.73-66.4,66.4,29.73,66.4,66.4,66.4,66.4-29.73,66.4-66.4Z"/>
  <path d="M498.37,574.55c0-36.67-29.73-66.4-66.4-66.4s-66.4,29.73-66.4,66.4,29.73,66.4,66.4,66.4,66.4-29.73,66.4-66.4Z"/>
  <path d="M681.15,574.55c0-36.67-29.73-66.4-66.4-66.4s-66.4,29.73-66.4,66.4,29.73,66.4,66.4,66.4,66.4-29.73,66.4-66.4Z"/>
  <circle cx="157.79" cy="754.2" r="66.4"/>
  <path d="M340.58,687.8c-36.67,0-66.4,29.73-66.4,66.4s29.73,66.4,66.4,66.4,66.4-29.73,66.4-66.4-29.73-66.4-66.4-66.4Z"/>
  <path d="M523.36,687.8c-36.67,0-66.4,29.73-66.4,66.4s29.73,66.4,66.4,66.4,66.4-29.73,66.4-66.4-29.73-66.4-66.4-66.4Z"/>
  <path d="M706.15,687.8c-36.67,0-66.4,29.73-66.4,66.4s29.73,66.4,66.4,66.4,66.4-29.73,66.4-66.4-29.73-66.4-66.4-66.4Z"/>
</svg>